<?xml version="1.0" encoding="utf-8"?><svg xmlns="http://www.w3.org/2000/svg" xmlns:xlink="http://www.w3.org/1999/xlink"><symbol viewBox="0 0 18 18" id="alpha" xmlns="http://www.w3.org/2000/svg"><path d="M16.816 15.273h-.17L10.075 1.046a1.184 1.184 0 0 0-2.15 0l-6.57 14.227h-.171a1.184 1.184 0 1 0 0 2.368h2.723a1.184 1.184 0 0 0 .054-2.365l1.112-2.407h7.854l1.112 2.407a1.183 1.183 0 0 0 .054 2.365h2.723a1.184 1.184 0 0 0 0-2.368zm-10.65-4.772L9 4.366l2.833 6.135H6.167z"/></symbol><symbol viewBox="0 0 18 18" id="binoculars" xmlns="http://www.w3.org/2000/svg"><path d="M13.99 8.478a1.71 1.71 0 0 0-1.708 1.709c0 .225.184.41.41.41.225 0 .41-.185.41-.41 0-.491.402-.894.893-.894.225 0 .41-.184.41-.41a.414.414 0 0 0-.414-.405z"/><path d="M16.778 7.3a4.627 4.627 0 0 0-.317-.277L14.947 5.74a3.971 3.971 0 0 0-2.03-.728l.08.082-.918-.923h-.008a1.44 1.44 0 0 0-2.34.62 1.317 1.317 0 0 0-.631-.203c-.037-.004-.078-.004-.115-.004a1.34 1.34 0 0 0-.712.207 1.443 1.443 0 0 0-2.34-.617h-.008l-.92.923.082-.081a3.992 3.992 0 0 0-2.03.727L1.543 7.027A3.999 3.999 0 0 0 0 10.19a4.02 4.02 0 0 0 4.016 4.016A4.02 4.02 0 0 0 8 10.685a2 2 0 0 0 1 .266c.365 0 .705-.096 1-.266a4.023 4.023 0 0 0 3.984 3.518A4.02 4.02 0 0 0 18 10.187 3.981 3.981 0 0 0 16.778 7.3zM4.016 12.93a2.738 2.738 0 1 1 0-5.479 2.738 2.738 0 1 1 0 5.479zm4.988-3.116a.89.89 0 1 1 0-1.78.89.89 0 0 1 0 1.78zm4.987 3.116a2.738 2.738 0 1 1 0-5.479 2.738 2.738 0 1 1 0 5.479z"/><path d="M4.016 8.478a1.71 1.71 0 0 0-1.709 1.709c0 .225.185.41.41.41.225 0 .41-.185.41-.41 0-.491.402-.894.893-.894.225 0 .41-.184.41-.41a.414.414 0 0 0-.414-.405z"/></symbol><symbol viewBox="0 0 16 16" id="canals" xmlns="http://www.w3.org/2000/svg"><g clip-path="url(#cclip0)"><path d="M16 .4c0-.106-.071-.208-.197-.283A.95.95 0 0 0 15.328 0H.672a.95.95 0 0 0-.475.117C.071.192 0 .294 0 .4v3.2c0 .106.071.208.197.283A.95.95 0 0 0 .672 4h14.656a.95.95 0 0 0 .475-.117c.126-.075.196-.177.197-.283V.4zm0 12c0-.106-.071-.208-.197-.283a.95.95 0 0 0-.475-.117H.672a.95.95 0 0 0-.475.117c-.126.075-.197.177-.197.283v3.2c0 .106.071.208.197.283A.95.95 0 0 0 .672 16h14.656a.95.95 0 0 0 .475-.117c.126-.075.196-.177.197-.283v-3.2zm0-6c0-.106-.071-.208-.197-.283A.95.95 0 0 0 15.328 6H.672a.95.95 0 0 0-.475.117C.071 6.192 0 6.294 0 6.4v3.2c0 .106.071.208.197.283A.95.95 0 0 0 .672 10h14.656a.95.95 0 0 0 .475-.117c.126-.075.196-.177.197-.283V6.4z"/></g><defs><clipPath id="cclip0"><path d="M0 0h16v16H0z"/></clipPath></defs></symbol><symbol viewBox="0 0 14 14" id="close" xmlns="http://www.w3.org/2000/svg"><path fill-rule="evenodd" clip-rule="evenodd" d="M13.035.166a.566.566 0 0 1 .8.8L7.798 7l6.035 6.036a.566.566 0 1 1-.8.8L7 7.8.965 13.834a.564.564 0 0 1-.8 0 .565.565 0 0 1 0-.8L6.2 7 .166.966a.565.565 0 1 1 .8-.8l6.033 6.035L13.035.166z"/></symbol><symbol viewBox="0 0 13 7" id="down" xmlns="http://www.w3.org/2000/svg"><path d="M6.03 6.819a.579.579 0 0 0 .208.133.736.736 0 0 0 .526 0 .579.579 0 0 0 .207-.133L12.882.726a.417.417 0 0 0 .1-.159.351.351 0 0 0 .012-.176.39.39 0 0 0-.076-.167.52.52 0 0 0-.153-.131.676.676 0 0 0-.207-.076.76.76 0 0 0-.446.049.565.565 0 0 0-.17.117L6.5 5.793 1.06.183a.556.556 0 0 0-.17-.12.753.753 0 0 0-.447-.049.667.667 0 0 0-.207.078.518.518 0 0 0-.155.131.387.387 0 0 0-.077.167.348.348 0 0 0 .014.177c.02.058.054.112.1.16L6.03 6.818z"/></symbol><symbol viewBox="0 0 18 16" id="home" xmlns="http://www.w3.org/2000/svg"><path d="M.622 9.528h1.466v5.846a.627.627 0 0 0 .628.626H7.01a.631.631 0 0 0 .628-.626v-4.28h2.619v4.28a.627.627 0 0 0 .628.626h4.084a.631.631 0 0 0 .629-.626V9.528h1.78a.627.627 0 0 0 .611-.746.623.623 0 0 0-.171-.319L9.628.186a.627.627 0 0 0-.88-.01L.193 8.452a.626.626 0 0 0 .08.971.614.614 0 0 0 .349.104z"/></symbol><symbol viewBox="0 0 16 16" id="instagram" xmlns="http://www.w3.org/2000/svg"><g clip-path="url(#gclip0)"><path d="M8 4.703A3.3 3.3 0 0 0 4.703 8 3.3 3.3 0 0 0 8 11.297 3.3 3.3 0 0 0 11.297 8 3.3 3.3 0 0 0 8 4.703z"/><path d="M14.388 1.612A5.45 5.45 0 0 0 10.51 0H5.49a5.45 5.45 0 0 0-3.878 1.612A5.45 5.45 0 0 0 0 5.49v5.021a5.45 5.45 0 0 0 1.612 3.878A5.45 5.45 0 0 0 5.49 16h5.022a5.45 5.45 0 0 0 3.877-1.612A5.45 5.45 0 0 0 16 10.51V5.49a5.45 5.45 0 0 0-1.612-3.878zM8 12.234A4.24 4.24 0 0 1 3.766 8 4.24 4.24 0 0 1 8 3.766 4.24 4.24 0 0 1 12.234 8 4.24 4.24 0 0 1 8 12.234zm4.69-8.262a.472.472 0 0 1-.662 0 .471.471 0 0 1 0-.663.471.471 0 0 1 .663 0 .472.472 0 0 1 0 .663z"/></g><defs><clipPath id="gclip0"><path d="M0 0h16v16H0z"/></clipPath></defs></symbol><symbol viewBox="0 0 18 18" id="line-chart" xmlns="http://www.w3.org/2000/svg"><g clip-path="url(#hclip0)"><path d="M1.22 13.4v2.918c0 .178.145.326.326.326h2.256a.326.326 0 0 0 .325-.325v-5.133l-1.638 1.638a1.988 1.988 0 0 1-1.269.577zm4.031-2.251v5.17c0 .177.144.325.326.325h2.255a.326.326 0 0 0 .326-.326v-3.043a1.966 1.966 0 0 1-1.357-.577l-1.55-1.55zm4.031 1.804v3.365c0 .178.144.326.326.326h2.255a.326.326 0 0 0 .326-.326V10.11l-2.585 2.585c-.1.1-.207.185-.322.26zm6.72-6.66l-2.689 2.688v7.337c0 .178.144.326.325.326h2.256a.326.326 0 0 0 .326-.326V6.496c-.074-.063-.13-.118-.17-.155L16 6.293z"/><path d="M17.847 1.53c-.107-.115-.27-.174-.477-.174h-.06c-1.05.048-2.096.1-3.146.148-.141.007-.333.015-.485.166a.551.551 0 0 0-.114.17c-.156.337.062.555.166.659l.262.266c.182.185.367.37.551.551L8.2 9.666 5.347 6.814a.906.906 0 0 0-1.283 0L.266 10.61a.906.906 0 0 0 0 1.283l.17.17a.906.906 0 0 0 1.284 0l2.984-2.984 2.851 2.85a.906.906 0 0 0 1.287 0l7.16-7.159.81.807c.095.096.229.229.432.229.085 0 .17-.022.259-.07.06-.034.11-.07.155-.115.16-.16.189-.362.196-.521.03-.68.063-1.361.096-2.046l.048-1.024c.011-.214-.037-.38-.151-.5z"/></g><defs><clipPath id="hclip0"><path d="M0 0h18v18H0z"/></clipPath></defs></symbol><symbol viewBox="0 0 18 18" id="posts" xmlns="http://www.w3.org/2000/svg"><g clip-path="url(#iclip0)"><path d="M6.563 13.209v3.479a.563.563 0 0 0 1.015.332l2.035-2.768-3.05-1.043zM17.763.104a.563.563 0 0 0-.586-.041L.302 8.876a.564.564 0 0 0 .078 1.03l4.69 1.604 9.99-8.542-7.73 9.314 7.862 2.687a.565.565 0 0 0 .738-.45L17.994.646a.564.564 0 0 0-.23-.541z"/></g><defs><clipPath id="iclip0"><path d="M0 0h18v18H0z"/></clipPath></defs></symbol><symbol viewBox="0 0 18 18" id="roboto" xmlns="http://www.w3.org/2000/svg"><path d="M10.538 7.186c0-.361.29-.654.648-.654a.65.65 0 0 1 .647.654.65.65 0 0 1-.647.653.65.65 0 0 1-.648-.653zM8.522 1.62h-.005v.895h.822v-.869A.87.87 0 0 0 9.818.87.867.867 0 0 0 8.954 0a.867.867 0 0 0-.864.871c0 .322.175.6.432.75zM6.724 7.839a.65.65 0 0 0 .647-.654.65.65 0 0 0-.647-.653.65.65 0 0 0-.648.653c0 .361.29.654.648.654zM8.954 18c.975 0 1.804-.625 2.118-1.5H6.836A2.255 2.255 0 0 0 8.954 18zM2.2 15.346c0-.346.201-.642.49-.782V10.86c0-.73.565-1.327 1.278-1.374V7.694S4.14 4.427 6.836 3.41A6.814 6.814 0 0 1 9 2.965a6.81 6.81 0 0 1 2.164.446c2.695 1.016 2.869 4.283 2.869 4.283v1.792a1.374 1.374 0 0 1 1.276 1.374v3.704c.29.14.491.437.491.782 0 .481-.387.87-.864.87a.867.867 0 0 1-.863-.87.87.87 0 0 1 .49-.782v-2.476c-.16.083-.34.133-.53.146v.86c.005.07.01.139.01.21 0 .075-.004.15-.01.225v.02a2.99 2.99 0 0 1-2.638 2.738l.001.02H6.604l.001-.02a2.99 2.99 0 0 1-2.637-2.738v-.02a3.13 3.13 0 0 1-.011-.225c0-.071.005-.14.01-.21v-.86a1.353 1.353 0 0 1-.53-.146v2.476c.29.14.49.437.49.782a.867.867 0 0 1-.863.871.867.867 0 0 1-.864-.87zm8.241-4.555a.418.418 0 0 0-.415-.42.417.417 0 0 0-.416.42c0 .232.186.42.416.42.23 0 .415-.188.415-.42zm1.024 0a.417.417 0 0 0-.416-.42.417.417 0 0 0-.416.42c0 .232.187.42.416.42.23 0 .416-.188.416-.42zm1.024 0a.417.417 0 0 0-.416-.42.417.417 0 0 0-.416.42c0 .232.186.42.416.42.23 0 .416-.188.416-.42zM5.5 7.307c0 1.112.864 1.185.864 1.185.3.096.936.048 1.223 0 .264-.045 1.235-.13 1.39-.143L9 8.35a.394.394 0 0 0 .023-.002c.154.013 1.125.098 1.39.143.287.048.922.096 1.223 0 0 0 .863-.072.863-1.185 0 0 0-1.234-.863-1.984-.838-.728-2.096-.886-2.59-.895h-.092c-.494.01-1.753.167-2.59.895-.864.75-.864 1.984-.864 1.984z"/></symbol><symbol viewBox="0 0 19 20" id="search" xmlns="http://www.w3.org/2000/svg"><g clip-path="url(#kclip0)"><path d="M13.197 13.056a7.773 7.773 0 0 0 1.965-5.349 7.758 7.758 0 0 0-2.196-5.253A7.442 7.442 0 0 0 7.825.203a7.427 7.427 0 0 0-5.24 1.999A7.742 7.742 0 0 0 .147 7.343a7.786 7.786 0 0 0 1.714 5.438 7.475 7.475 0 0 0 4.917 2.723 7.403 7.403 0 0 0 5.397-1.498l5.662 5.783a.68.68 0 0 0 .482.211.648.648 0 0 0 .483-.211.723.723 0 0 0 0-.997l-5.605-5.736zM1.378 7.777a6.47 6.47 0 0 1 1.051-3.539 6.267 6.267 0 0 1 2.8-2.346 6.116 6.116 0 0 1 3.603-.362 6.198 6.198 0 0 1 3.193 1.743 6.413 6.413 0 0 1 1.707 3.262 6.496 6.496 0 0 1-.355 3.68 6.343 6.343 0 0 1-2.297 2.858 6.144 6.144 0 0 1-3.465 1.074 6.177 6.177 0 0 1-4.408-1.867 6.445 6.445 0 0 1-1.829-4.503z"/></g><defs><clipPath id="kclip0"><path d="M0 0h19v20H0z"/></clipPath></defs></symbol><symbol viewBox="0 0 16 16" id="trophy" xmlns="http://www.w3.org/2000/svg"><path d="M15.531 1.155h-2.053c.008-.228.012-.456.012-.686A.469.469 0 0 0 13.02 0H2.98a.469.469 0 0 0-.47.469c0 .23.005.458.012.686H.469A.469.469 0 0 0 0 1.624c0 2.1.549 4.081 1.546 5.58.985 1.48 2.297 2.33 3.715 2.412.321.35.661.635 1.015.853v2.083H5.49c-.951 0-1.724.773-1.724 1.724v.786h-.034a.469.469 0 1 0 0 .938h8.536a.469.469 0 0 0 0-.938h-.034v-.786c0-.95-.773-1.724-1.724-1.724h-.786v-2.083a4.811 4.811 0 0 0 1.015-.853c1.418-.082 2.73-.932 3.715-2.413C15.451 5.705 16 3.723 16 1.623a.469.469 0 0 0-.469-.468zM2.326 6.685C1.504 5.447 1.021 3.832.947 2.091h1.627c.17 2.14.672 4.117 1.457 5.687.125.25.255.486.39.709-.779-.295-1.5-.91-2.095-1.804zm11.348 0c-.595.893-1.316 1.508-2.096 1.803.136-.223.267-.46.392-.71.784-1.569 1.287-3.546 1.456-5.686h1.627c-.074 1.74-.557 3.356-1.38 4.592z"/></symbol></svg>