<?xml version="1.0" encoding="utf-8"?><svg xmlns="http://www.w3.org/2000/svg" xmlns:xlink="http://www.w3.org/1999/xlink"><symbol viewBox="0 0 18 18" id="alpha" xmlns="http://www.w3.org/2000/svg"><path d="M16.816 15.273h-.17L10.075 1.046a1.184 1.184 0 0 0-2.15 0l-6.57 14.227h-.171a1.184 1.184 0 1 0 0 2.368h2.723a1.184 1.184 0 0 0 .054-2.365l1.112-2.407h7.854l1.112 2.407a1.183 1.183 0 0 0 .054 2.365h2.723a1.184 1.184 0 0 0 0-2.368zm-10.65-4.772L9 4.366l2.833 6.135H6.167z"/></symbol><symbol viewBox="0 0 18 18" id="binoculars" xmlns="http://www.w3.org/2000/svg"><path d="M13.99 8.478a1.71 1.71 0 0 0-1.708 1.709c0 .225.184.41.41.41.225 0 .41-.185.41-.41 0-.491.402-.894.893-.894.225 0 .41-.184.41-.41a.414.414 0 0 0-.414-.405z"/><path d="M16.778 7.3a4.627 4.627 0 0 0-.317-.277L14.947 5.74a3.971 3.971 0 0 0-2.03-.728l.08.082-.918-.923h-.008a1.44 1.44 0 0 0-2.34.62 1.317 1.317 0 0 0-.631-.203c-.037-.004-.078-.004-.115-.004a1.34 1.34 0 0 0-.712.207 1.443 1.443 0 0 0-2.34-.617h-.008l-.92.923.082-.081a3.992 3.992 0 0 0-2.03.727L1.543 7.027A3.999 3.999 0 0 0 0 10.19a4.02 4.02 0 0 0 4.016 4.016A4.02 4.02 0 0 0 8 10.685a2 2 0 0 0 1 .266c.365 0 .705-.096 1-.266a4.023 4.023 0 0 0 3.984 3.518A4.02 4.02 0 0 0 18 10.187 3.981 3.981 0 0 0 16.778 7.3zM4.016 12.93a2.738 2.738 0 1 1 0-5.479 2.738 2.738 0 1 1 0 5.479zm4.988-3.116a.89.89 0 1 1 0-1.78.89.89 0 0 1 0 1.78zm4.987 3.116a2.738 2.738 0 1 1 0-5.479 2.738 2.738 0 1 1 0 5.479z"/><path d="M4.016 8.478a1.71 1.71 0 0 0-1.709 1.709c0 .225.185.41.41.41.225 0 .41-.185.41-.41 0-.491.402-.894.893-.894.225 0 .41-.184.41-.41a.414.414 0 0 0-.414-.405z"/></symbol><symbol viewBox="0 0 16 16" id="canals" xmlns="http://www.w3.org/2000/svg"><g clip-path="url(#acclip0)"><path d="M16 .4c0-.106-.071-.208-.197-.283A.95.95 0 0 0 15.328 0H.672a.95.95 0 0 0-.475.117C.071.192 0 .294 0 .4v3.2c0 .106.071.208.197.283A.95.95 0 0 0 .672 4h14.656a.95.95 0 0 0 .475-.117c.126-.075.196-.177.197-.283V.4zm0 12c0-.106-.071-.208-.197-.283a.95.95 0 0 0-.475-.117H.672a.95.95 0 0 0-.475.117c-.126.075-.197.177-.197.283v3.2c0 .106.071.208.197.283A.95.95 0 0 0 .672 16h14.656a.95.95 0 0 0 .475-.117c.126-.075.196-.177.197-.283v-3.2zm0-6c0-.106-.071-.208-.197-.283A.95.95 0 0 0 15.328 6H.672a.95.95 0 0 0-.475.117C.071 6.192 0 6.294 0 6.4v3.2c0 .106.071.208.197.283A.95.95 0 0 0 .672 10h14.656a.95.95 0 0 0 .475-.117c.126-.075.196-.177.197-.283V6.4z"/></g><defs><clipPath id="acclip0"><path d="M0 0h16v16H0z"/></clipPath></defs></symbol><symbol viewBox="0 0 15 11" id="check" xmlns="http://www.w3.org/2000/svg"><g clip-path="url(#adclip0)"><path d="M13.418.3L5.643 8.807l-4.1-3.865a.922.922 0 0 0-1.29.03.889.889 0 0 0 .03 1.268l4.768 4.507a.897.897 0 0 0 .638.254h.03a.924.924 0 0 0 .638-.299L14.77 1.51a.896.896 0 0 0 .229-.65.884.884 0 0 0-.307-.619.884.884 0 0 0-.65-.237.894.894 0 0 0-.623.297z"/></g><defs><clipPath id="adclip0"><path d="M0 0h15v11H0z"/></clipPath></defs></symbol><symbol viewBox="0 0 14 14" id="close" xmlns="http://www.w3.org/2000/svg"><path fill-rule="evenodd" clip-rule="evenodd" d="M13.035.166a.566.566 0 0 1 .8.8L7.798 7l6.035 6.036a.566.566 0 1 1-.8.8L7 7.8.965 13.834a.564.564 0 0 1-.8 0 .565.565 0 0 1 0-.8L6.2 7 .166.966a.565.565 0 1 1 .8-.8l6.033 6.035L13.035.166z"/></symbol><symbol viewBox="0 0 38 56" id="dog" xmlns="http://www.w3.org/2000/svg"><mask id="afa" maskUnits="userSpaceOnUse" x="0" y="0" width="38" height="56"><path d="M0 0h38v56H0z"/></mask><g mask="url(#afa)"><path d="M35.897 58.793H19c-8.157 0-14.793-6.636-14.793-14.793S10.843 29.207 19 29.207 33.793 35.843 33.793 44a3.533 3.533 0 0 1-3.528 3.529A3.533 3.533 0 0 1 26.735 44c0-4.265-3.47-7.736-7.735-7.736-4.265 0-7.736 3.47-7.736 7.736 0 4.265 3.47 7.736 7.736 7.736 2.218 0 4.22-.94 5.632-2.442a7.713 7.713 0 0 0 5.633 2.442C34.53 51.736 38 48.266 38 44c0-10.477-8.523-19-19-19S0 33.523 0 44s8.523 19 19 19h16.897a2.103 2.103 0 0 0 0-4.207zM19 47.53A3.533 3.533 0 0 1 15.471 44 3.533 3.533 0 0 1 19 40.471 3.533 3.533 0 0 1 22.53 44 3.533 3.533 0 0 1 19 47.529z" fill-opacity=".2"/></g></symbol><symbol viewBox="0 0 13 7" id="down" xmlns="http://www.w3.org/2000/svg"><path d="M6.03 6.819a.579.579 0 0 0 .208.133.736.736 0 0 0 .526 0 .579.579 0 0 0 .207-.133L12.882.726a.417.417 0 0 0 .1-.159.351.351 0 0 0 .012-.176.39.39 0 0 0-.076-.167.52.52 0 0 0-.153-.131.676.676 0 0 0-.207-.076.76.76 0 0 0-.446.049.565.565 0 0 0-.17.117L6.5 5.793 1.06.183a.556.556 0 0 0-.17-.12.753.753 0 0 0-.447-.049.667.667 0 0 0-.207.078.518.518 0 0 0-.155.131.387.387 0 0 0-.077.167.348.348 0 0 0 .014.177c.02.058.054.112.1.16L6.03 6.818z"/></symbol><symbol viewBox="0 0 12 12" id="exit" xmlns="http://www.w3.org/2000/svg"><g clip-path="url(#ahclip0)"><path d="M8.484 9.187v.938A1.877 1.877 0 0 1 6.61 12H1.9a1.877 1.877 0 0 1-1.876-1.875v-8.25A1.876 1.876 0 0 1 1.898 0H6.61c1.034 0 1.875.841 1.875 1.875v.938a.469.469 0 1 1-.937 0v-.938A.939.939 0 0 0 6.61.937H1.9a.939.939 0 0 0-.938.938v8.25c0 .517.42.938.937.938H6.61a.94.94 0 0 0 .938-.938v-.938a.469.469 0 1 1 .937 0zm3.196-3.992l-1.05-1.05a.469.469 0 1 0-.662.663l.746.747H5.086a.469.469 0 1 0 0 .937h5.628l-.746.747a.469.469 0 1 0 .663.663l1.05-1.05c.456-.457.456-1.2 0-1.657z"/></g><defs><clipPath id="ahclip0"><path d="M0 0h12v12H0z"/></clipPath></defs></symbol><symbol viewBox="0 0 12 7" id="eye" xmlns="http://www.w3.org/2000/svg"><path d="M1.396 5.278a6.49 6.49 0 0 0 2.115 1.29C4.301 6.863 5.148 7.01 6 7a6.906 6.906 0 0 0 2.488-.435 6.521 6.521 0 0 0 2.116-1.287 6.268 6.268 0 0 0 1.358-1.736.351.351 0 0 0 0-.313A5.378 5.378 0 0 0 10.64 1.6C9.787.867 8.28 0 5.957 0S2.156.874 1.318 1.605A5.08 5.08 0 0 0 .03 3.242a.346.346 0 0 0 .007.3 6.11 6.11 0 0 0 1.359 1.736zm4.54-4.47c.407 0 .805.113 1.143.322.338.21.601.507.757.855.155.348.196.73.117 1.1-.08.37-.275.71-.563.976a2.11 2.11 0 0 1-1.052.521 2.207 2.207 0 0 1-1.188-.108 2.03 2.03 0 0 1-.922-.702 1.807 1.807 0 0 1-.347-1.058c0-.505.217-.99.603-1.346a2.143 2.143 0 0 1 1.452-.56zm-2.386.38a2.531 2.531 0 0 0-.203 2.744c.205.377.504.704.871.955.367.25.793.416 1.243.486.45.069.912.039 1.347-.088a2.953 2.953 0 0 0 1.157-.643c.326-.296.572-.659.718-1.06.147-.4.189-.826.124-1.245a2.579 2.579 0 0 0-.499-1.162c1.18.412 2.165 1.198 2.781 2.218-.298.5-.673.956-1.112 1.356a5.571 5.571 0 0 1-1.83 1.115 5.902 5.902 0 0 1-2.155.367 5.938 5.938 0 0 1-2.153-.372 5.607 5.607 0 0 1-1.83-1.116 6.001 6.001 0 0 1-1.12-1.364c.578-1 1.521-1.776 2.66-2.191z"/></symbol><symbol viewBox="0 0 20 20" id="facebook_logo" xmlns="http://www.w3.org/2000/svg"><path d="M7.35 3.873v2.754H5.334v3.367h2.018V20h4.144V9.994h2.78s.261-1.614.387-3.38H11.51V4.313c0-.344.452-.807.899-.807h2.258V0h-3.07C7.248 0 7.35 3.37 7.35 3.873z"/></symbol><symbol viewBox="0 0 20 18" id="heart" xmlns="http://www.w3.org/2000/svg"><g clip-path="url(#akclip0)"><path d="M9.631 17.875a.834.834 0 0 0 .423.125.756.756 0 0 0 .423-.125c.346-.224 8.467-5.442 9.389-10.747.474-2.746-.399-4.444-1.204-5.38A4.975 4.975 0 0 0 16.98.476a5.098 5.098 0 0 0-2.073-.474 3.725 3.725 0 0 0-1.306.224A9.525 9.525 0 0 0 9.62 3.06C8.915 2.211 7.711.988 6.251.501A4.559 4.559 0 0 0 4.803.277a4.694 4.694 0 0 0-1.861.371 4.59 4.59 0 0 0-1.548 1.075C.64 2.535-.219 4.083.051 6.778c.538 5.306 9.21 10.86 9.58 11.098zM2.535 2.721a3.089 3.089 0 0 1 2.268-.961c.322-.002.642.049.947.15 1.78.587 3.203 2.796 3.228 2.808.07.111.167.202.284.264a.761.761 0 0 0 .382.086.791.791 0 0 0 .377-.104.767.767 0 0 0 .276-.27 8.078 8.078 0 0 1 3.856-3.082 2.39 2.39 0 0 1 .755-.125c.494.013.98.13 1.423.34.445.211.837.512 1.152.883.87.999 1.166 2.447.858 4.17-.332 1.897-1.921 4.169-4.598 6.578a36.436 36.436 0 0 1-3.69 2.883 38.297 38.297 0 0 1-3.906-3.033C3.355 10.81 1.78 8.5 1.587 6.628c-.166-1.71.154-3.057.948-3.907z"/></g><defs><clipPath id="akclip0"><path d="M0 0h20v18H0z"/></clipPath></defs></symbol><symbol viewBox="0 0 18 16" id="home" xmlns="http://www.w3.org/2000/svg"><path d="M.622 9.528h1.466v5.846a.627.627 0 0 0 .628.626H7.01a.631.631 0 0 0 .628-.626v-4.28h2.619v4.28a.627.627 0 0 0 .628.626h4.084a.631.631 0 0 0 .629-.626V9.528h1.78a.627.627 0 0 0 .611-.746.623.623 0 0 0-.171-.319L9.628.186a.627.627 0 0 0-.88-.01L.193 8.452a.626.626 0 0 0 .08.971.614.614 0 0 0 .349.104z"/></symbol><symbol viewBox="0 0 16 16" id="instagram" xmlns="http://www.w3.org/2000/svg"><g clip-path="url(#amclip0)"><path d="M8 4.703A3.3 3.3 0 0 0 4.703 8 3.3 3.3 0 0 0 8 11.297 3.3 3.3 0 0 0 11.297 8 3.3 3.3 0 0 0 8 4.703z"/><path d="M14.388 1.612A5.45 5.45 0 0 0 10.51 0H5.49a5.45 5.45 0 0 0-3.878 1.612A5.45 5.45 0 0 0 0 5.49v5.021a5.45 5.45 0 0 0 1.612 3.878A5.45 5.45 0 0 0 5.49 16h5.022a5.45 5.45 0 0 0 3.877-1.612A5.45 5.45 0 0 0 16 10.51V5.49a5.45 5.45 0 0 0-1.612-3.878zM8 12.234A4.24 4.24 0 0 1 3.766 8 4.24 4.24 0 0 1 8 3.766 4.24 4.24 0 0 1 12.234 8 4.24 4.24 0 0 1 8 12.234zm4.69-8.262a.472.472 0 0 1-.662 0 .471.471 0 0 1 0-.663.471.471 0 0 1 .663 0 .472.472 0 0 1 0 .663z"/></g><defs><clipPath id="amclip0"><path d="M0 0h16v16H0z"/></clipPath></defs></symbol><symbol viewBox="0 0 18 18" id="line-chart" xmlns="http://www.w3.org/2000/svg"><g clip-path="url(#anclip0)"><path d="M1.22 13.4v2.918c0 .178.145.326.326.326h2.256a.326.326 0 0 0 .325-.325v-5.133l-1.638 1.638a1.988 1.988 0 0 1-1.269.577zm4.031-2.251v5.17c0 .177.144.325.326.325h2.255a.326.326 0 0 0 .326-.326v-3.043a1.966 1.966 0 0 1-1.357-.577l-1.55-1.55zm4.031 1.804v3.365c0 .178.144.326.326.326h2.255a.326.326 0 0 0 .326-.326V10.11l-2.585 2.585c-.1.1-.207.185-.322.26zm6.72-6.66l-2.689 2.688v7.337c0 .178.144.326.325.326h2.256a.326.326 0 0 0 .326-.326V6.496c-.074-.063-.13-.118-.17-.155L16 6.293z"/><path d="M17.847 1.53c-.107-.115-.27-.174-.477-.174h-.06c-1.05.048-2.096.1-3.146.148-.141.007-.333.015-.485.166a.551.551 0 0 0-.114.17c-.156.337.062.555.166.659l.262.266c.182.185.367.37.551.551L8.2 9.666 5.347 6.814a.906.906 0 0 0-1.283 0L.266 10.61a.906.906 0 0 0 0 1.283l.17.17a.906.906 0 0 0 1.284 0l2.984-2.984 2.851 2.85a.906.906 0 0 0 1.287 0l7.16-7.159.81.807c.095.096.229.229.432.229.085 0 .17-.022.259-.07.06-.034.11-.07.155-.115.16-.16.189-.362.196-.521.03-.68.063-1.361.096-2.046l.048-1.024c.011-.214-.037-.38-.151-.5z"/></g><defs><clipPath id="anclip0"><path d="M0 0h18v18H0z"/></clipPath></defs></symbol><symbol viewBox="0 0 189 92" id="line_grafic" xmlns="http://www.w3.org/2000/svg"><g filter="url(#aofilter0_d)"><path d="M11 63.173c1.675-12.402 9.192-38.612 15.654-38.612 11.92-2.106 14.506 48.44 26.857 48.44 12.782 0 23.696-83.54 40.356-68.096C105.931 16.088 110.5 73 124 73c1.5 0 15-4 25.5-4s10.5 4 28 4"/></g><defs><filter id="aofilter0_d" x="0" y="0" width="188.5" height="92" filterUnits="userSpaceOnUse" color-interpolation-filters="sRGB"><feFlood flood-opacity="0" result="BackgroundImageFix"/><feColorMatrix in="SourceAlpha" values="0 0 0 0 0 0 0 0 0 0 0 0 0 0 0 0 0 0 127 0"/><feOffset dy="8"/><feGaussianBlur stdDeviation="5"/><feColorMatrix values="0 0 0 0 0.495898 0 0 0 0 0.61451 0 0 0 0 1 0 0 0 1 0"/><feBlend in2="BackgroundImageFix" result="effect1_dropShadow"/><feBlend in="SourceGraphic" in2="effect1_dropShadow" result="shape"/></filter></defs></symbol><symbol viewBox="0 0 40 56" id="pen" xmlns="http://www.w3.org/2000/svg"><mask id="apa" maskUnits="userSpaceOnUse" x="0" y="0" width="40" height="56"><path d="M0 0h40v56H0z"/></mask><g mask="url(#apa)"><path d="M36.072 47.871a.946.946 0 0 0-.946.947v8.403a2.842 2.842 0 0 1-2.84 2.839H5.733a2.842 2.842 0 0 1-2.84-2.84V32.559a2.843 2.843 0 0 1 2.84-2.839h8.403a.946.946 0 1 0 0-1.893H5.732A4.737 4.737 0 0 0 1 32.558v24.663a4.737 4.737 0 0 0 4.732 4.732h26.555a4.737 4.737 0 0 0 4.732-4.732v-8.403a.946.946 0 0 0-.947-.947z" fill-opacity=".2"/><path d="M5.732 27.626A4.937 4.937 0 0 0 .8 32.558v24.663a4.937 4.937 0 0 0 4.932 4.932h26.555a4.937 4.937 0 0 0 4.932-4.932v-8.403a1.146 1.146 0 1 0-2.293 0v8.402a2.642 2.642 0 0 1-2.64 2.64H5.733a2.642 2.642 0 0 1-2.64-2.64V32.56a2.643 2.643 0 0 1 2.64-2.64h8.403a1.146 1.146 0 1 0 0-2.293H5.732z"/><path d="M36.644 25.392a4.259 4.259 0 0 0-6.023 0L13.737 42.276a.946.946 0 0 0-.243.417l-2.22 8.016a.946.946 0 0 0 1.164 1.164l8.016-2.22a.946.946 0 0 0 .417-.243l16.884-16.885a4.264 4.264 0 0 0 0-6.023l-1.111-1.11zm-20.845 17.5l13.818-13.82 4.457 4.457-13.819 13.819L15.8 42.89zm-.89 1.785l3.56 3.561-4.925 1.365 1.365-4.925zm21.507-13.49l-1.003 1.004-4.457-4.457 1.004-1.004a2.366 2.366 0 0 1 3.345 0l1.111 1.11a2.37 2.37 0 0 1 0 3.347z" fill-opacity=".2"/><path d="M11.375 51.772a1.146 1.146 0 0 1-.294-1.117l.294 1.117zm0 0c.292.292.718.404 1.116.294l8.016-2.22a1.15 1.15 0 0 0 .505-.295l-.141-.141.141.141 16.884-16.884a4.463 4.463 0 0 0 0-6.306l-1.11-1.11a4.459 4.459 0 0 0-6.306 0L13.595 42.134a1.15 1.15 0 0 0-.294.504l-2.22 8.016.294 1.117zm24.038-19.864l-4.174-4.174.862-.863a2.166 2.166 0 0 1 3.063 0l1.11 1.11a2.17 2.17 0 0 1 0 3.064l-.861.863zm0 0l.862-.862-.862.862zM16.082 42.89l13.535-13.536 4.174 4.174-13.536 13.536-4.173-4.174zm-2.25 6.425l1.178-4.255 3.075 3.076-4.254 1.179z"/></g></symbol><symbol viewBox="0 0 14 12" id="photo-logo" xmlns="http://www.w3.org/2000/svg"><path d="M12.123 2.292l-1.469-.007L9.246.213A.463.463 0 0 0 8.862 0H5.069a.468.468 0 0 0-.377.205L3.24 2.285l-1.362.007a1.897 1.897 0 0 0-1.325.545A1.843 1.843 0 0 0 0 4.144v5.988c.001.493.199.965.55 1.315.351.35.828.548 1.327.554h10.246a1.91 1.91 0 0 0 1.327-.554 1.86 1.86 0 0 0 .55-1.315V4.144c-.002-.49-.2-.96-.552-1.307a1.897 1.897 0 0 0-1.325-.545zm.954 7.84a.946.946 0 0 1-.28.67.979.979 0 0 1-.674.287H1.877a.978.978 0 0 1-.675-.286.953.953 0 0 1-.279-.67v-5.99a.94.94 0 0 1 .28-.664.965.965 0 0 1 .674-.278h1.608a.468.468 0 0 0 .377-.205L5.315.918h3.3l1.401 2.065a.473.473 0 0 0 .377.205l1.723.015a.963.963 0 0 1 .673.277.94.94 0 0 1 .28.664v5.988h.009-.001z"/><path d="M7.039 3.385a3.3 3.3 0 0 0-1.817.544 3.236 3.236 0 0 0-1.204 1.448 3.186 3.186 0 0 0-.186 1.863c.126.626.438 1.2.895 1.652.457.451 1.04.758 1.674.883A3.31 3.31 0 0 0 8.29 9.59a3.26 3.26 0 0 0 1.467-1.188c.36-.53.55-1.154.55-1.792 0-.855-.344-1.676-.957-2.28a3.294 3.294 0 0 0-2.311-.946zm0 5.54c-.464 0-.918-.135-1.304-.39a2.322 2.322 0 0 1-.864-1.038 2.287 2.287 0 0 1 .509-2.523 2.376 2.376 0 0 1 2.557-.502 2.34 2.34 0 0 1 1.052.853c.258.38.396.828.396 1.286a2.304 2.304 0 0 1-.689 1.636 2.367 2.367 0 0 1-1.657.679zm4.376-4.029a.176.176 0 0 0 .177-.175.176.176 0 0 0-.177-.174.176.176 0 0 0-.177.174c0 .096.08.175.177.175z"/><path d="M11.415 4.091a.645.645 0 0 0-.59.389.622.622 0 0 0 .139.686.641.641 0 0 0 1.09-.445.621.621 0 0 0-.394-.582.644.644 0 0 0-.245-.048zm0 .91a.287.287 0 0 1-.201-.082.28.28 0 0 1 0-.397.287.287 0 0 1 .403 0 .28.28 0 0 1-.093.458.289.289 0 0 1-.109.022z"/></symbol><symbol viewBox="0 0 36 36" id="play" xmlns="http://www.w3.org/2000/svg"><g filter="url(#arfilter0_b)"><circle cx="18" cy="18" r="18" fill-opacity=".17"/></g><g clip-path="url(#arclip0)"><path d="M24.63 15.573a.502.502 0 1 0-.531.851c.547.342.874.93.874 1.576 0 .645-.327 1.234-.874 1.576l-8.233 5.133a1.836 1.836 0 0 1-1.884.048 1.834 1.834 0 0 1-.955-1.623V12.866c0-.684.357-1.291.955-1.623a1.834 1.834 0 0 1 1.884.048l8.233 5.133c.235.147-.307-.456-.16-.691.146-.235.927-.014.691-.16l-8.233-5.134a2.825 2.825 0 0 0-2.902-.074 2.825 2.825 0 0 0-1.472 2.501v10.268c0 1.054.55 1.99 1.472 2.5.44.244.915.366 1.39.366.522 0 1.043-.147 1.512-.439l8.233-5.134A2.844 2.844 0 0 0 25.977 18c0-.994-.503-1.901-1.347-2.427z"/></g><defs><filter id="arfilter0_b" x="-8" y="-8" width="52" height="52" filterUnits="userSpaceOnUse" color-interpolation-filters="sRGB"><feFlood flood-opacity="0" result="BackgroundImageFix"/><feGaussianBlur in="BackgroundImage" stdDeviation="4"/><feComposite in2="SourceAlpha" operator="in" result="effect1_backgroundBlur"/><feBlend in="SourceGraphic" in2="effect1_backgroundBlur" result="shape"/></filter><clipPath id="arclip0"><path transform="translate(11 10)" d="M0 0h16v16H0z"/></clipPath></defs></symbol><symbol viewBox="0 0 13 12" id="pod" xmlns="http://www.w3.org/2000/svg"><path d="M11.319 4.814h-.926a1.033 1.033 0 0 0-.715.28.98.98 0 0 0-.31.686v5.238a.979.979 0 0 0 .309.69c.191.183.448.285.716.285h.934c.024 0 .057-.008.082-.008.262-.048 1.59-.44 1.59-3.72a6.94 6.94 0 0 0-.262-2.07.456.456 0 0 0 .016-.103 6.013 6.013 0 0 0-1.832-4.308A6.34 6.34 0 0 0 6.5 0a6.34 6.34 0 0 0-4.422 1.784A6.013 6.013 0 0 0 .245 6.092c0 .072.016.143.048.207A7.314 7.314 0 0 0 0 8.543c0 1.317.221 2.275.648 2.858.11.172.26.316.438.42.178.104.379.166.586.179h.943c.267 0 .524-.102.716-.284a.987.987 0 0 0 .308-.69V5.788a.994.994 0 0 0-.313-.691 1.047 1.047 0 0 0-.72-.283h-.934a.286.286 0 0 0-.082.008.968.968 0 0 0-.213.063 5.12 5.12 0 0 1 1.857-2.824A5.358 5.358 0 0 1 6.485.957a5.36 5.36 0 0 1 3.257 1.089c.93.708 1.59 1.7 1.872 2.815a.997.997 0 0 0-.287-.047h-.008zm-9.558.958h.844a.365.365 0 0 1 .042.008v5.238c0 .008-.033.016-.042.016H1.68c-.19-.08-.697-.558-.697-2.498 0-2.197.63-2.684.778-2.764zm10.254 2.5c0 2.211-.63 2.69-.779 2.77h-.843a.216.216 0 0 1-.043-.016V5.788c0-.008.033-.008.043-.008h.934c.18-.008.688.55.688 2.492z"/></symbol><symbol viewBox="0 0 17 21" id="podpischic" xmlns="http://www.w3.org/2000/svg"><path d="M4.84 15.352a.65.65 0 0 0 .188.457.64.64 0 0 0 .453.19H16.36a.64.64 0 0 0 .453-.19.653.653 0 0 0 .188-.457c0-3.585-1.603-6.663-3.857-7.894a4.059 4.059 0 0 0 1.565-2.007c.295-.822.32-1.718.07-2.555A4.065 4.065 0 0 0 13.326.803a3.995 3.995 0 0 0-4.801 0 4.066 4.066 0 0 0-1.452 2.093 4.106 4.106 0 0 0 .07 2.555 4.059 4.059 0 0 0 1.565 2.007C6.443 8.689 4.84 11.767 4.84 15.352zm6.08-14.049c.54 0 1.07.162 1.52.466.45.304.8.735 1.007 1.24a2.792 2.792 0 0 1-.593 3.013 2.709 2.709 0 0 1-2.98.6c-.5-.21-.928-.564-1.229-1.019a2.785 2.785 0 0 1 .342-3.489 2.726 2.726 0 0 1 1.933-.811zm0 6.857c2.5 0 4.552 2.883 4.776 6.544H6.144c.224-3.66 2.276-6.544 4.776-6.544z"/><path d="M6.518 9.813l-.36.345.36-.345a.995.995 0 0 0-.718-.308.995.995 0 0 0-.718.308l.36.345-.36-.345a1.037 1.037 0 0 0-.287.718v3.445h-3.29a.996.996 0 0 0-.718.308 1.037 1.037 0 0 0 0 1.437.995.995 0 0 0 .718.308h3.29v3.445c0 .266.1.524.287.718a.995.995 0 0 0 1.436 0c.186-.194.287-.452.287-.718v-3.445h3.29a.995.995 0 0 0 .717-.308 1.037 1.037 0 0 0 0-1.437.995.995 0 0 0-.717-.308h-3.29v-3.445c0-.266-.101-.525-.287-.718z"/></symbol><symbol viewBox="0 0 18 18" id="posts" xmlns="http://www.w3.org/2000/svg"><g clip-path="url(#auclip0)"><path d="M6.563 13.209v3.479a.563.563 0 0 0 1.015.332l2.035-2.768-3.05-1.043zM17.763.104a.563.563 0 0 0-.586-.041L.302 8.876a.564.564 0 0 0 .078 1.03l4.69 1.604 9.99-8.542-7.73 9.314 7.862 2.687a.565.565 0 0 0 .738-.45L17.994.646a.564.564 0 0 0-.23-.541z"/></g><defs><clipPath id="auclip0"><path d="M0 0h18v18H0z"/></clipPath></defs></symbol><symbol viewBox="0 0 17 13" id="prev" xmlns="http://www.w3.org/2000/svg"><g clip-path="url(#avclip0)"><path d="M17 6.495a.635.635 0 0 0-.2-.457.7.7 0 0 0-.48-.19H2.47l4.965-4.211a.654.654 0 0 0 .227-.448.622.622 0 0 0-.17-.47.68.68 0 0 0-.47-.217.714.714 0 0 0-.494.163L.294 5.966a.653.653 0 0 0-.216.23.617.617 0 0 0-.019.565.658.658 0 0 0 .167.22l6.302 5.355a.704.704 0 0 0 .963-.054.631.631 0 0 0-.056-.918L2.459 7.143H16.32a.7.7 0 0 0 .48-.19.635.635 0 0 0 .2-.458z"/></g><defs><clipPath id="avclip0"><path transform="rotate(90 8.25 8.75)" d="M0 0h12v17H0z"/></clipPath></defs></symbol><symbol viewBox="0 0 24 24" id="question" xmlns="http://www.w3.org/2000/svg"><path d="M12 24a.937.937 0 1 0 0-1.875A.937.937 0 0 0 12 24zm7.358-16.698C19.328 3.27 16.038 0 12 0 7.941 0 4.64 3.301 4.64 7.36a.937.937 0 1 0 1.876 0A5.49 5.49 0 0 1 12 1.875a5.49 5.49 0 0 1 5.486 5.534 5.481 5.481 0 0 1-3.334 5c-1.877.801-3.09 2.656-3.09 4.727v2.177a.938.938 0 0 0 1.876 0v-2.177c0-1.318.765-2.497 1.95-3.003a7.354 7.354 0 0 0 4.471-6.831z"/></symbol><symbol viewBox="0 0 18 18" id="roboto" xmlns="http://www.w3.org/2000/svg"><path d="M10.538 7.186c0-.361.29-.654.648-.654a.65.65 0 0 1 .647.654.65.65 0 0 1-.647.653.65.65 0 0 1-.648-.653zM8.522 1.62h-.005v.895h.822v-.869A.87.87 0 0 0 9.818.87.867.867 0 0 0 8.954 0a.867.867 0 0 0-.864.871c0 .322.175.6.432.75zM6.724 7.839a.65.65 0 0 0 .647-.654.65.65 0 0 0-.647-.653.65.65 0 0 0-.648.653c0 .361.29.654.648.654zM8.954 18c.975 0 1.804-.625 2.118-1.5H6.836A2.255 2.255 0 0 0 8.954 18zM2.2 15.346c0-.346.201-.642.49-.782V10.86c0-.73.565-1.327 1.278-1.374V7.694S4.14 4.427 6.836 3.41A6.814 6.814 0 0 1 9 2.965a6.81 6.81 0 0 1 2.164.446c2.695 1.016 2.869 4.283 2.869 4.283v1.792a1.374 1.374 0 0 1 1.276 1.374v3.704c.29.14.491.437.491.782 0 .481-.387.87-.864.87a.867.867 0 0 1-.863-.87.87.87 0 0 1 .49-.782v-2.476c-.16.083-.34.133-.53.146v.86c.005.07.01.139.01.21 0 .075-.004.15-.01.225v.02a2.99 2.99 0 0 1-2.638 2.738l.001.02H6.604l.001-.02a2.99 2.99 0 0 1-2.637-2.738v-.02a3.13 3.13 0 0 1-.011-.225c0-.071.005-.14.01-.21v-.86a1.353 1.353 0 0 1-.53-.146v2.476c.29.14.49.437.49.782a.867.867 0 0 1-.863.871.867.867 0 0 1-.864-.87zm8.241-4.555a.418.418 0 0 0-.415-.42.417.417 0 0 0-.416.42c0 .232.186.42.416.42.23 0 .415-.188.415-.42zm1.024 0a.417.417 0 0 0-.416-.42.417.417 0 0 0-.416.42c0 .232.187.42.416.42.23 0 .416-.188.416-.42zm1.024 0a.417.417 0 0 0-.416-.42.417.417 0 0 0-.416.42c0 .232.186.42.416.42.23 0 .416-.188.416-.42zM5.5 7.307c0 1.112.864 1.185.864 1.185.3.096.936.048 1.223 0 .264-.045 1.235-.13 1.39-.143L9 8.35a.394.394 0 0 0 .023-.002c.154.013 1.125.098 1.39.143.287.048.922.096 1.223 0 0 0 .863-.072.863-1.185 0 0 0-1.234-.863-1.984-.838-.728-2.096-.886-2.59-.895h-.092c-.494.01-1.753.167-2.59.895-.864.75-.864 1.984-.864 1.984z"/></symbol><symbol viewBox="0 0 28 56" id="rub" xmlns="http://www.w3.org/2000/svg"><mask id="aya" maskUnits="userSpaceOnUse" x="0" y="0" width="28" height="56"><path d="M0 0h28v56H0z"/></mask><g mask="url(#aya)"><path d="M16.1 45.212c6.562 0 11.9-5.43 11.9-12.106C28 26.431 22.662 21 16.1 21l-.076.001H6.3c-1.16 0-2.1.957-2.1 2.137v26.347H2.1c-1.16 0-2.1.956-2.1 2.136 0 1.18.94 2.137 2.1 2.137h2.1v12.106c0 1.18.94 2.136 2.1 2.136 1.16 0 2.1-.957 2.1-2.136V53.758h7.7c1.16 0 2.1-.957 2.1-2.137 0-1.18-.94-2.136-2.1-2.136H8.4v-4.273h7.7zm0-19.938l.068-.001c4.215.037 7.632 3.537 7.632 7.833 0 4.32-3.454 7.833-7.7 7.833H8.4V25.274h7.7z" fill-opacity=".2"/></g></symbol><symbol viewBox="0 0 19 20" id="search" xmlns="http://www.w3.org/2000/svg"><g clip-path="url(#azclip0)"><path d="M13.197 13.056a7.773 7.773 0 0 0 1.965-5.349 7.758 7.758 0 0 0-2.196-5.253A7.442 7.442 0 0 0 7.825.203a7.427 7.427 0 0 0-5.24 1.999A7.742 7.742 0 0 0 .147 7.343a7.786 7.786 0 0 0 1.714 5.438 7.475 7.475 0 0 0 4.917 2.723 7.403 7.403 0 0 0 5.397-1.498l5.662 5.783a.68.68 0 0 0 .482.211.648.648 0 0 0 .483-.211.723.723 0 0 0 0-.997l-5.605-5.736zM1.378 7.777a6.47 6.47 0 0 1 1.051-3.539 6.267 6.267 0 0 1 2.8-2.346 6.116 6.116 0 0 1 3.603-.362 6.198 6.198 0 0 1 3.193 1.743 6.413 6.413 0 0 1 1.707 3.262 6.496 6.496 0 0 1-.355 3.68 6.343 6.343 0 0 1-2.297 2.858 6.144 6.144 0 0 1-3.465 1.074 6.177 6.177 0 0 1-4.408-1.867 6.445 6.445 0 0 1-1.829-4.503z"/></g><defs><clipPath id="azclip0"><path d="M0 0h19v20H0z"/></clipPath></defs></symbol><symbol viewBox="0 0 26 26" id="small_line-chart" xmlns="http://www.w3.org/2000/svg"><path d="M23.24 6.84a2.764 2.764 0 0 0-2.761 2.76c0 .555.165 1.072.448 1.505l-2.982 2.983a2.744 2.744 0 0 0-1.506-.448c-.575 0-1.11.177-1.553.479l-3.013-3.014c.283-.433.448-.95.448-1.505a2.764 2.764 0 0 0-2.76-2.76A2.764 2.764 0 0 0 6.8 9.6c0 .555.164 1.072.447 1.505l-2.982 2.983a2.744 2.744 0 0 0-1.505-.448A2.764 2.764 0 0 0 0 16.4a2.764 2.764 0 0 0 2.76 2.76 2.764 2.764 0 0 0 2.761-2.76c0-.555-.165-1.072-.448-1.505l2.982-2.983a2.744 2.744 0 0 0 3.011 0l3.03 3.03a2.744 2.744 0 0 0-.418 1.458 2.764 2.764 0 0 0 2.761 2.76 2.764 2.764 0 0 0 2.76-2.76c0-.555-.165-1.072-.448-1.505l2.983-2.983c.433.283.95.448 1.505.448A2.764 2.764 0 0 0 26 9.6a2.764 2.764 0 0 0-2.76-2.76zM2.76 18.02a1.622 1.622 0 0 1-1.619-1.62c0-.893.727-1.62 1.62-1.62.893 0 1.62.727 1.62 1.62 0 .893-.727 1.62-1.62 1.62zm6.8-6.8A1.622 1.622 0 0 1 7.941 9.6c0-.893.727-1.62 1.62-1.62.893 0 1.62.727 1.62 1.62 0 .893-.727 1.62-1.62 1.62zm6.88 6.8c-.894 0-1.62-.727-1.62-1.62 0-.893.726-1.62 1.62-1.62.892 0 1.619.727 1.619 1.62 0 .893-.727 1.62-1.62 1.62zm6.8-6.8c-.894 0-1.62-.727-1.62-1.62 0-.893.726-1.62 1.62-1.62.892 0 1.619.727 1.619 1.62 0 .893-.727 1.62-1.62 1.62z"/><path d="M8.977 13.849a.57.57 0 0 0-.807 0l-1.16 1.16a.57.57 0 0 0 .806.807l1.16-1.16a.57.57 0 0 0 0-.807zm10.013-3.645a.57.57 0 0 0-.807 0l-1.16 1.16a.57.57 0 0 0 .807.807l1.16-1.16a.57.57 0 0 0 0-.807z"/></symbol><symbol viewBox="0 0 20 20" id="telegram" xmlns="http://www.w3.org/2000/svg"><g clip-path="url(#bbclip0)"><path d="M19.835 2.634a.723.723 0 0 0-.81-.222L.68 9.055a1.029 1.029 0 0 0-.671.845c-.048.386.122.76.44.975l2.623 1.794c.254.174.58.192.853.049l5.688-3.006-4.433 3.317a.834.834 0 0 0-.333.664v3.073a.86.86 0 0 0 1.336.718l1.992-1.324 1.96 1.338a1.031 1.031 0 0 0 1.459-.309l8.3-13.713a.73.73 0 0 0-.058-.842z"/></g><defs><clipPath id="bbclip0"><path d="M0 0h20v20H0z"/></clipPath></defs></symbol><symbol viewBox="0 0 16 16" id="trophy" xmlns="http://www.w3.org/2000/svg"><path d="M15.531 1.155h-2.053c.008-.228.012-.456.012-.686A.469.469 0 0 0 13.02 0H2.98a.469.469 0 0 0-.47.469c0 .23.005.458.012.686H.469A.469.469 0 0 0 0 1.624c0 2.1.549 4.081 1.546 5.58.985 1.48 2.297 2.33 3.715 2.412.321.35.661.635 1.015.853v2.083H5.49c-.951 0-1.724.773-1.724 1.724v.786h-.034a.469.469 0 1 0 0 .938h8.536a.469.469 0 0 0 0-.938h-.034v-.786c0-.95-.773-1.724-1.724-1.724h-.786v-2.083a4.811 4.811 0 0 0 1.015-.853c1.418-.082 2.73-.932 3.715-2.413C15.451 5.705 16 3.723 16 1.623a.469.469 0 0 0-.469-.468zM2.326 6.685C1.504 5.447 1.021 3.832.947 2.091h1.627c.17 2.14.672 4.117 1.457 5.687.125.25.255.486.39.709-.779-.295-1.5-.91-2.095-1.804zm11.348 0c-.595.893-1.316 1.508-2.096 1.803.136-.223.267-.46.392-.71.784-1.569 1.287-3.546 1.456-5.686h1.627c-.074 1.74-.557 3.356-1.38 4.592z"/></symbol><symbol viewBox="0 0 8 10" id="user-canal-logo" xmlns="http://www.w3.org/2000/svg"><path d="M0 9.593a.4.4 0 0 0 .124.287.44.44 0 0 0 .298.119h7.156a.432.432 0 0 0 .298-.12A.398.398 0 0 0 8 9.594c0-2.241-1.054-4.166-2.538-4.935a2.561 2.561 0 0 0 1.03-1.256 2.45 2.45 0 0 0 .047-1.597 2.545 2.545 0 0 0-.956-1.31 2.72 2.72 0 0 0-1.58-.502 2.72 2.72 0 0 0-1.579.502 2.545 2.545 0 0 0-.955 1.309 2.447 2.447 0 0 0 .046 1.597c.194.514.555.954 1.03 1.256C1.055 5.428 0 7.352 0 9.593zM4 .81c.356 0 .704.101 1 .291.296.19.526.46.663.776.136.316.171.663.102.999-.07.335-.24.643-.492.885a1.824 1.824 0 0 1-.922.473c-.349.066-.71.032-1.04-.099a1.786 1.786 0 0 1-.807-.636 1.68 1.68 0 0 1-.304-.96 1.7 1.7 0 0 1 .528-1.222A1.841 1.841 0 0 1 4 .809zm0 4.287c1.645 0 2.995 1.803 3.142 4.092H.858C1.005 6.9 2.355 5.096 4 5.096z"/></symbol><symbol viewBox="0 0 10 13" id="user_small" xmlns="http://www.w3.org/2000/svg"><path d="M0 12.47a.528.528 0 0 0 .527.527h8.946A.53.53 0 0 0 10 12.47c0-2.914-1.318-5.416-3.172-6.416a3.305 3.305 0 0 0 1.345-3.71A3.305 3.305 0 0 0 5.005-.008a3.31 3.31 0 0 0-3.169 2.354 3.301 3.301 0 0 0 1.345 3.709C1.318 7.054 0 9.556 0 12.47zM5 1.05a2.251 2.251 0 0 1 2.078 1.387 2.245 2.245 0 0 1-1.64 3.064A2.252 2.252 0 0 1 2.75 3.297 2.25 2.25 0 0 1 5 1.05zm0 5.574c2.056 0 3.743 2.344 3.928 5.32H1.072C1.257 8.968 2.944 6.624 5 6.624z"/></symbol><symbol viewBox="0 0 26 15" id="vk_logo" xmlns="http://www.w3.org/2000/svg"><path fill-rule="evenodd" clip-rule="evenodd" d="M22.377 9.538c.862.858 1.773 1.666 2.546 2.61.342.42.665.854.913 1.341.35.693.033 1.455-.577 1.497l-3.787-.002c-.977.083-1.757-.318-2.412-1-.524-.544-1.01-1.123-1.514-1.686a3.614 3.614 0 0 0-.682-.618c-.517-.342-.966-.237-1.261.313-.301.559-.37 1.178-.399 1.801-.04.91-.31 1.148-1.206 1.19-1.915.092-3.732-.203-5.42-1.188-1.488-.868-2.642-2.093-3.647-3.48-1.956-2.702-3.454-5.671-4.8-8.723C-.172.906.05.537.794.523a104.17 104.17 0 0 1 3.708 0c.503.007.835.301 1.029.785.668 1.675 1.487 3.27 2.513 4.748.274.393.553.787.95 1.064.439.306.773.205.98-.294.131-.316.188-.657.218-.996.098-1.165.11-2.329-.06-3.49-.106-.725-.507-1.194-1.216-1.332C8.554.937 8.608.8 8.783.59 9.087.226 9.373 0 9.945 0h4.28c.674.136.824.444.916 1.136l.004 4.847c-.008.268.131 1.062.604 1.239.378.126.628-.183.855-.427 1.025-1.11 1.756-2.42 2.41-3.777.29-.597.54-1.216.78-1.835.18-.46.46-.686.968-.676l4.12.004c.123 0 .246.002.364.022.695.12.885.425.67 1.116-.337 1.085-.995 1.988-1.637 2.896-.688.97-1.422 1.905-2.104 2.88-.626.89-.576 1.34.202 2.113z"/></symbol><symbol viewBox="0 0 20 20" id="warning" xmlns="http://www.w3.org/2000/svg"><g clip-path="url(#bgclip0)"><path d="M19.81 16.735L11.22 1.857A1.394 1.394 0 0 0 10 1.153c-.509 0-.965.263-1.22.704L.19 16.735c-.254.44-.254.967 0 1.408.255.44.711.704 1.22.704h17.18c.509 0 .965-.263 1.22-.704.254-.44.254-.967 0-1.408zm-1.017.821a.227.227 0 0 1-.203.118H1.41a.227.227 0 0 1-.203-.118.227.227 0 0 1 0-.234l8.59-14.878A.227.227 0 0 1 10 2.326c.05 0 .144.016.203.118l8.59 14.878a.227.227 0 0 1 0 .234z"/><path d="M10.587 6.488H9.414v6.258h1.173V6.488zM10 15.483a.782.782 0 1 0 0-1.564.782.782 0 0 0 0 1.564z"/></g><defs><clipPath id="bgclip0"><path d="M0 0h20v20H0z"/></clipPath></defs></symbol><symbol viewBox="0 0 40 39" id="white_instagram" xmlns="http://www.w3.org/2000/svg"><path d="M29.192 0H10.808C4.848 0 0 4.848 0 10.808v18.384C0 35.152 4.848 40 10.808 40h18.384C35.152 40 40 35.152 40 29.192V10.808C40 4.848 35.152 0 29.192 0zm7.576 29.192c0 4.178-3.398 7.576-7.576 7.576H10.808c-4.178 0-7.576-3.398-7.576-7.576V10.808c0-4.178 3.398-7.576 7.576-7.576h18.384c4.178 0 7.576 3.398 7.576 7.576v18.384z" fill-opacity=".2"/><path d="M28.952 18.605a8.907 8.907 0 0 0-2.53-5.027 8.907 8.907 0 0 0-5.027-2.53 8.96 8.96 0 0 0-2.631 0 8.91 8.91 0 0 0-5.889 3.529 8.91 8.91 0 0 0-1.668 6.66 8.911 8.911 0 0 0 3.53 5.888 8.902 8.902 0 0 0 6.658 1.668 8.911 8.911 0 0 0 5.889-3.53 8.91 8.91 0 0 0 1.668-6.658zm-8.03 6.991a5.7 5.7 0 0 1-4.26-1.067 5.7 5.7 0 0 1-2.258-3.767 5.7 5.7 0 0 1 1.067-4.26 5.7 5.7 0 0 1 3.767-2.257 5.736 5.736 0 0 1 1.683 0 5.705 5.705 0 0 1 4.834 4.834 5.744 5.744 0 0 1-4.834 6.517zm10.332-16.85a1.632 1.632 0 0 0-1.143-.473c-.425 0-.841.172-1.142.473a1.627 1.627 0 0 0-.474 1.143c0 .426.173.841.474 1.142.3.301.717.473 1.142.473.425 0 .842-.172 1.143-.473.3-.3.473-.717.473-1.142 0-.426-.172-.842-.473-1.143z" fill-opacity=".2"/></symbol></svg>